<?xml version="1.0" standalone="no"?>
<!DOCTYPE svg PUBLIC "-//W3C//DTD SVG 1.1//EN" "http://www.w3.org/Graphics/SVG/1.1/DTD/svg11.dtd" >
<svg xmlns="http://www.w3.org/2000/svg">
<metadata></metadata>
<defs>
<font id="xfinityindicatorsregular" horiz-adv-x="2756" >
<font-face units-per-em="2048" ascent="1638" descent="-410" />
<missing-glyph horiz-adv-x="468" />
<glyph unicode=" "  horiz-adv-x="468" />
<glyph unicode="&#x09;" horiz-adv-x="468" />
<glyph unicode="&#xa0;" horiz-adv-x="468" />
<glyph unicode="&#x2000;" horiz-adv-x="984" />
<glyph unicode="&#x2001;" horiz-adv-x="1968" />
<glyph unicode="&#x2002;" horiz-adv-x="984" />
<glyph unicode="&#x2003;" horiz-adv-x="1968" />
<glyph unicode="&#x2004;" horiz-adv-x="656" />
<glyph unicode="&#x2005;" horiz-adv-x="492" />
<glyph unicode="&#x2006;" horiz-adv-x="328" />
<glyph unicode="&#x2007;" horiz-adv-x="328" />
<glyph unicode="&#x2008;" horiz-adv-x="246" />
<glyph unicode="&#x2009;" horiz-adv-x="393" />
<glyph unicode="&#x200a;" horiz-adv-x="109" />
<glyph unicode="&#x202f;" horiz-adv-x="393" />
<glyph unicode="&#x205f;" horiz-adv-x="492" />
<glyph unicode="&#xe000;" horiz-adv-x="1024" d="M0 0z" />
<glyph unicode="&#xf000;" horiz-adv-x="3198" d="M158 160v1149q0 63 42.5 106t106.5 43h2589q61 0 103 -43t42 -106v-1149q0 -60 -42 -102t-103 -42h-2589q-64 0 -106.5 41.5t-42.5 102.5zM420 1104q0 -29 22 -55q15 -15 68 -15h195v-649q0 -54 24 -78q28 -31 68 -31q32 0 63 27q25 25 25 82v649h198q44 0 64 15 q24 19 24 55q0 34 -20 57q-32 19 -68 19h-573q-49 0 -68 -19q-22 -26 -22 -57zM1217 1110q0 -3 3 -13t3 -14q3 -9 8 -34l14 -31l205 -574q5 -10 27 -59q15 -37 28 -57q8 -15 39 -35q23 -17 60 -17q38 0 63 17q3 2 12.5 9t16 13t10.5 13q22 33 31 57q5 23 24 59l209 582 l15 29q3 5 6 32q4 4 4 23q0 24 -10 41q-11 20 -35 33q-17 10 -39 10q-31 0 -49 -14q-20 -17 -25 -33q-6 -11 -27 -70l-198 -596l-203 592q-20 63 -39 92t-63 29q-40 0 -62 -25q-28 -28 -28 -59zM2058 1120q0 -14 13 -49q4 -5 38 -67l220 -334v-285q0 -56 26 -82 q27 -27 58 -27q45 0 69 31q23 30 23 78v285l223 338q32 47 37 63q14 22 14 51q0 37 -22 52q-17 20 -58 20q-3 0 -39 -6q-17 -17 -22 -27q-14 -12 -25 -31l-26 -43l-166 -266l-166 266q-15 24 -31.5 53.5t-19.5 33.5q-26 20 -62 20q-35 0 -57 -25q-27 -20 -27 -49z" />
<glyph unicode="&#xf001;" horiz-adv-x="3999" d="M158 166v1143q0 63 43 106t106 43h3386q63 0 106 -43t43 -106v-1143q0 -63 -43 -106.5t-106 -43.5h-3386q-63 0 -106 43.5t-43 106.5zM442 1108q0 -28 27 -51q20 -23 66 -23h198v-649q0 -52 23 -82q27 -27 65 -27q45 0 66 27q24 27 24 82v649h197q54 0 74 23q22 19 22 51 q0 35 -22 57q-21 21 -74 21h-573q-45 0 -66 -21q-27 -27 -27 -57zM1251 1120q0 -19 2 -33q1 -4 5.5 -14t5.5 -16l10 -35l215 -576q3 -15 11 -36t9 -25q3 -12 7.5 -22.5t10 -20.5t7.5 -14q4 -4 10.5 -11.5t10.5 -11t10 -7.5t12 -5q23 -17 65 -17q41 0 58 17q18 4 41 35 q18 21 26 57q12 22 25 61l215 582l12 31q1 4 5 14t4 14q2 14 2 35q0 20 -11 37q-3 8 -26 31q-23 10 -45 10q-32 0 -52 -14q-17 -10 -24 -35q-14 -21 -27 -66l-200 -602l-201 596q-15 49 -41 90q-22 31 -68 31q-28 0 -61 -22q-23 -26 -23 -58zM2095 1124q0 -28 12 -45 q8 -24 43 -71l217 -338v-285q0 -57 25 -82q21 -27 66 -27q38 0 65 27q27 35 27 82v285l219 342q30 38 41 63q12 27 12 53q0 30 -22 52q-26 20 -58 20q-11 0 -35 -6q-13 -6 -30 -27q-5 -3 -23 -28l-24 -45l-168 -271l-168 271q-45 67 -56 86q-20 20 -57 20q-39 0 -59 -20 q-27 -21 -27 -56zM2943 1108q0 -44 23 -55q22 -19 77 -19h326q-73 -94 -133 -196q-62 -117 -90 -191q-43 -97 -54 -164q-18 -77 -18 -102q0 -58 23 -78q24 -27 59 -27q33 0 61 21q21 21 35 88q9 27 15 80q8 63 16 82q2 24 18 82q49 132 78 180q38 72 82 129q25 35 68 90 q28 43 28 74q0 38 -22 57q-34 19 -86 19h-406q-19 0 -77 -13q-23 -9 -23 -57z" />
<glyph unicode="&#xf002;" horiz-adv-x="3444" d="M158 166v1143q0 63 44 106t107 43h2824q63 0 108.5 -43t45.5 -106v-1143q0 -63 -45.5 -106.5t-108.5 -43.5h-2824q-63 0 -107 43.5t-44 106.5zM455 1108q0 -35 20 -49q16 -21 68 -21h198v-653q0 -57 25 -82q28 -31 65 -31q34 0 68 31q25 25 25 82v653h198q50 0 66 21 q29 18 29 49q0 34 -29 59q-16 19 -66 19h-579q-44 0 -68 -19q-20 -20 -20 -59zM1260 1122q0 -8 2.5 -18t3.5 -17q0 -6 5.5 -15.5t6.5 -14.5l6 -31l213 -580q20 -41 25 -65q15 -35 28 -53q12 -27 43 -39q30 -17 62 -17q31 0 61 17q15 7 39 39q24 33 29 53q15 44 18 65 l221 582l9 33q8 11 12 29q4 14 4 32q0 16 -10 39q-23 23 -35 29q-11 14 -41 14q-24 0 -53 -18q-15 -15 -23 -33q-10 -16 -24 -66l-203 -608l-203 606q-23 65 -39 93q-26 26 -67 26q-35 0 -66 -24q-24 -36 -24 -58zM2132 739q0 -101 33 -192q39 -97 92 -150q50 -59 143 -90 q87 -35 187 -35q82 0 161 21q83 23 160 61q19 13 49 39q16 12 23 37q4 10 4 53v172q0 52 -14 66q-12 28 -41 35q-40 4 -64 4h-209q-37 0 -57 -17q-21 -18 -21 -49q0 -37 23 -53q24 -16 78 -16h143v-146q-55 -27 -117 -45q-53 -18 -112 -18q-138 0 -201 88q-78 78 -78 239 q0 88 21 138q21 65 57 96q26 40 78 63q43 21 115 21q69 0 100 -19q38 -12 61 -43q27 -30 60 -79q8 -16 33 -25q20 -8 32 -8q35 0 62 20q28 28 28 62q0 18 -22 71q-24 36 -68 80q-60 45 -114 60q-81 24 -158 24q-119 0 -199 -35q-88 -27 -143 -94q-69 -59 -92 -141 q-33 -101 -33 -195z" />
<glyph unicode="&#xf003;" horiz-adv-x="4206" d="M158 164v1145q0 62 42.5 105.5t104.5 43.5h3596q60 0 104 -44t44 -105v-1145q0 -60 -44 -104t-104 -44h-3596q-62 0 -104.5 43.5t-42.5 104.5zM416 1104q0 -28 20 -51q28 -19 74 -19h195v-649q0 -54 28 -86q20 -23 62 -23t65 23q25 32 25 86v649h200q46 0 68 19 q21 19 21 51q0 41 -21 57q-18 21 -68 21h-575q-52 0 -70 -21q-24 -19 -24 -57zM1225 1118q0 -19 4 -31q0 -26 4 -34l12 -31l213 -578q6 -24 27 -61q10 -41 24 -55q19 -31 43 -39q23 -13 58 -13q32 0 65 13q15 9 41 39q14 16 23 55q19 27 22 61l219 582l15 33l4 28q6 12 6 31 q0 4 -1.5 9.5t-4.5 14.5t-4 15q-3 3 -14.5 13.5t-18.5 15.5q-33 14 -45 14q-28 0 -47 -14q-22 -17 -31 -39q-11 -42 -20 -62l-203 -604l-201 598q-14 41 -39 86q-20 35 -67 35q-36 0 -64 -31q-20 -15 -20 -51zM2140 385q0 -54 25 -86q18 -23 63 -23q43 0 66 23q26 33 26 86 v254h166q167 0 246 70q88 70 88 209q0 58 -22 110q-17 40 -60 90q-51 38 -94 47q-50 17 -158 17h-229q-71 0 -88 -25q-29 -20 -29 -88v-684zM2320 772v275h121q123 0 162 -39q35 -38 35 -93q0 -40 -27 -84q-21 -34 -63 -43q-50 -16 -107 -16h-121zM2933 737q0 -107 30 -190 q36 -89 91 -150q63 -60 149 -90q61 -31 184 -31q98 0 162 17q105 37 160 65q8 4 23 16t24 15q15 17 23 39q0 7 3 24t3 29v170q0 44 -15 70q-27 31 -43 31q-27 6 -67 6h-205q-31 0 -59 -19q-23 -19 -23 -47q0 -34 31 -53q32 -16 71 -16h142v-146q-46 -25 -111 -47 q-52 -14 -119 -14q-125 0 -198 82q-72 84 -72 241q0 63 18 133q12 53 54 99q35 44 80 67q53 21 114 21q63 0 103 -19q30 -16 63 -45q9 -10 27 -36t28 -39q2 -7 5.5 -11.5t12.5 -10.5l9 -7q12 -6 39 -6q37 0 64 18q22 28 22 62t-18 69q-28 47 -72 76q-34 37 -111 68 q-86 22 -159 22q-93 0 -193 -35q-77 -27 -149 -92q-55 -58 -91 -147q-30 -86 -30 -189z" />
<glyph unicode="&#xf004;" horiz-adv-x="3985" d="M158 164v1145q0 61 46 105t105 44h3373q59 0 102.5 -44t43.5 -105v-1145q0 -60 -43.5 -104t-102.5 -44h-3373q-59 0 -105 44.5t-46 103.5zM457 1108q0 -37 18 -55q22 -19 70 -19h198v-649q0 -54 25 -86q20 -23 63 -23t66 23q27 39 27 86v649h194q44 0 72 19q20 23 20 55 q0 26 -20 53q-18 21 -72 21h-573q-52 0 -70 -21q-18 -18 -18 -53zM1255 1118q0 -17 7 -31q9 -33 10 -34l12 -31l213 -578q11 -48 19 -61q9 -29 28 -55q3 -3 10 -11.5t10.5 -12.5t10 -9t12.5 -8q33 -11 62 -11q26 0 63 11q21 12 39 41q17 29 25 55q11 20 18 61l223 582l8 31 q6 15 11 30q4 12 4 31q0 12 -10 39q-23 23 -35 29q-19 14 -39 14q-28 0 -53 -18q-3 -4 -11.5 -15.5t-13.5 -19.5q-9 -18 -23 -62l-200 -608l-205 602q-16 53 -41 86q-14 35 -63 35q-34 0 -62 -31q-12 -8 -20.5 -24.5t-8.5 -26.5zM2157 879q0 -34 20 -54q28 -16 45 -16 q49 0 209 117v-553q0 -51 20 -74q18 -23 62 -23q84 0 84 121v697q0 29 -19 67q-23 29 -53 29q-29 0 -41 -12q-2 -4 -8 -12t-17 -22t-18 -24q-45 -59 -78 -86q-47 -38 -116 -78q-57 -23 -70 -34q-20 -8 -20 -43zM2832 573q0 -37 31 -65q34 -31 86 -31h305v-108q0 -51 23 -74 q22 -19 53 -19q41 0 55 19q21 21 21 74v108h35q41 0 71 19q25 21 25 51q0 41 -31 57q-24 12 -69 12h-31v471q0 55 -22 80t-68 25q-30 0 -54 -14l-51 -68l-321 -430l-23 -29l-16 -22q-1 -5 -7 -14t-8 -13q0 -4 -2 -13t-2 -16zM2992 616l262 355v-355h-262z" />
<glyph unicode="&#xf005;" horiz-adv-x="4423" d="M158 166v1139q0 61 42 104t101 43h3820q59 0 102 -43t43 -104v-1139q0 -62 -43 -106t-102 -44h-3820q-59 0 -101 43.5t-42 106.5zM469 1135q0 -36 20 -62q36 -18 68 -18h193v-643q0 -51 28 -86q23 -23 66 -23q45 0 65 23q23 29 23 86v643h196q38 0 70 18q27 27 27 62 q0 34 -27 49q-18 20 -70 20h-571q-48 0 -68 -20q-20 -11 -20 -49zM1270 1139q0 -19 2 -27q0 -18 14 -39l4 -31l213 -573l27 -61q10 -40 24 -58q27 -27 43 -33q20 -14 60 -14q41 0 61 14q7 3 14.5 8.5t16.5 14t12 10.5l27 58q2 9 9.5 29.5t10.5 31.5l213 580l17 32q0 1 2 13 t4 18q2 10 2 31q0 19 -8 35q-12 24 -35 32q-14 11 -43 11q-30 0 -47 -17q-24 -24 -27 -28q-2 -13 -22 -72l-203 -596l-199 594q-21 63 -43 92q-20 27 -63 27q-41 0 -66 -25q-20 -30 -20 -57zM2175 403q0 -53 23 -79q18 -21 57 -21q43 0 61 23q29 29 29 77v611l139 -563 l13 -54q7 -28 22 -49q24 -30 31 -37q28 -8 55 -8q42 0 66 19q26 33 32 47q4 7 6.5 19t6.5 30.5t8 32.5l143 563v-611q0 -51 23 -77q18 -23 59 -23q39 0 57 23q27 24 27 77v701q0 63 -31 80q-22 20 -80 20h-55q-62 0 -74 -8q-19 -3 -38 -35q-3 -5 -6 -15.5t-7.5 -28 t-9.5 -32.5l-127 -483l-129 483q-16 60 -27 76q-6 32 -30 35q-18 8 -74 8h-59q-55 0 -80 -20q-31 -12 -31 -80v-701zM3152 383q0 -30 29 -59q18 -21 57 -21q48 0 61 21q31 55 43 90l39 116h365l41 -112l22 -49q2 -10 10.5 -24.5t10.5 -18.5q5 -2 12.5 -9.5t13.5 -9.5 q8 -4 35 -4q40 0 66 23q20 23 20 57q0 44 -24 96l-232 574l-28 69q-11 30 -25 52q-26 26 -37 30q-28 17 -67 17q-47 0 -62 -17q-7 -1 -14 -5t-11 -7.5t-11 -9.5t-9 -8q-3 -10 -13 -30.5t-14 -31.5l-24 -59l-225 -580q-3 -9 -11.5 -28t-9.5 -27q-8 -20 -8 -35zM3430 668 l134 362l133 -362h-267z" />
<glyph unicode="&#xf006;" horiz-adv-x="2646" d="M158 166v1143q0 64 41.5 106.5t105.5 42.5h2036q64 0 105.5 -42.5t41.5 -106.5v-1143q0 -65 -41.5 -107.5t-105.5 -42.5h-2036q-64 0 -105.5 42.5t-41.5 107.5zM479 383q0 -53 29 -78q23 -29 59 -29q33 0 56 29q26 16 26 78v518l340 -516l29 -43q5 -5 14 -19t15 -18 q16 -16 38 -20q27 -9 39 -9q53 0 77 29t24 92v693q0 54 -25 79q-19 25 -61 25q-36 0 -58 -25q-22 -22 -22 -79v-525l-375 565q-21 29 -31 35q-7 15 -24 23q-18 6 -41 6q-28 0 -60 -16q-23 -15 -34 -41q-15 -27 -15 -74v-680zM1419 385q0 -50 23 -80q32 -29 67 -29 q39 0 68 29q25 37 25 80v289h59q52 0 82 -15q21 -7 61 -47q34 -42 70 -100l74 -123q9 -13 21.5 -33.5t17.5 -27.5q15 -24 36 -39q4 -1 13.5 -5t18 -6t16.5 -2q23 0 45 11q19 7 30 24q13 26 13 37q0 20 -21 64q-21 50 -53 102q-37 60 -76 104q-52 55 -92 76q109 20 168 82 q53 59 53 160q0 54 -14 92q-11 36 -47 78q-41 33 -74 45q-20 14 -76 23q-50 6 -102 6h-297q-54 0 -80 -29q-29 -17 -29 -82v-684zM1602 803v239h163q89 0 125 -8q43 -29 52 -43q20 -40 20 -67q0 -42 -27 -76q-30 -30 -63 -35q-33 -10 -111 -10h-159z" />
<glyph unicode="&#xf007;" horiz-adv-x="4110" d="M158 166v1143q0 63 42.5 106t104.5 43h3500q63 0 105.5 -43t42.5 -106v-1143q0 -63 -42.5 -106.5t-105.5 -43.5h-3500q-62 0 -104.5 43.5t-42.5 106.5zM449 354q0 -28 26 -57q28 -25 60 -25q46 0 55 25q24 21 43 88l43 119h366l48 -115l16 -47q3 -10 9.5 -25t8.5 -20 q7 -3 27 -16q27 -9 35 -9q41 0 69 25q23 35 23 57q0 24 -27 97l-231 577l-27 74l-30 45q-10 22 -39 39q-28 14 -66 14q-29 0 -61 -14q-31 -16 -39 -39q-2 -5 -14 -24.5t-19 -35.5l-20 -59l-230 -582q-6 -11 -14 -31.5t-8 -21.5q-4 -12 -4 -39zM725 641l133 367l135 -367 h-268zM1364 618q0 -79 16 -139q27 -74 58 -110q40 -46 88 -72q55 -25 108 -25q47 0 88 13q28 9 68 37q44 31 68 63v-16q0 -47 18 -72q25 -25 61 -25q34 0 56 25q20 20 20 72v735q0 50 -18 74q-26 22 -58 22q-42 0 -61 -31q-18 -18 -18 -75v-244q-44 46 -97 74 q-66 28 -127 28q-120 0 -196 -88q-74 -89 -74 -246zM1530 612q0 67 20 117q17 50 56 70q36 26 82 26q42 0 81 -26q36 -22 58 -70q20 -52 20 -117q0 -60 -20 -118q-19 -46 -58 -66q-42 -29 -81 -29q-35 0 -80 29q-41 29 -58 70q-20 50 -20 114zM2177 518q0 -91 33 -149 q20 -40 69 -72q55 -25 109 -25q43 0 92 17q37 6 70 35q29 21 61 65v-20q0 -40 23 -72q28 -25 59 -25t53 25q25 22 25 72v483q0 50 -25 72q-22 28 -57 28q-39 0 -61 -28q-23 -20 -23 -72v-205q0 -84 -12 -153q-17 -35 -53 -64q-40 -27 -80 -27q-46 0 -74 25q-26 22 -31 61 q-14 32 -14 97v266q0 54 -21 72q-22 28 -61 28q-37 0 -59 -28q-23 -20 -23 -72v-334zM2937 373q0 -49 24 -76q25 -25 58 -25t61 25q21 27 21 76v729q0 49 -21 76q-22 22 -61 22q-33 0 -58 -31q-24 -15 -24 -67v-729zM3207 881q0 -33 17 -47q17 -17 57 -17h22v-323 q0 -68 13 -125q8 -44 51 -72q48 -25 119 -25q76 0 127 21q45 23 45 61q0 20 -15 43q-18 15 -39 15q-26 0 -38 -4q-7 -1 -20 -5t-21 -4q-13 0 -39 17q-2 3 -4.5 8t-6 13t-6.5 14q0 3 -1 23t-1 34v309h33q58 0 76 14q24 9 24 50q0 27 -16 39q-15 18 -57 18h-60v115q0 49 -2 61 q0 17 -22 39q-35 27 -54 27q-30 0 -43 -13q-21 -11 -30 -28q-4 -4 -6 -10.5t-4 -14.5l-3 -12v-164h-18q-42 0 -55 -18q-23 -23 -23 -39z" />
<glyph unicode="&#xf008;" horiz-adv-x="2533" d="M158 166q0 -61 42 -105.5t101 -44.5h1931q59 0 101.5 44.5t42.5 105.5v1147q0 60 -42.5 102.5t-101.5 42.5h-1931q-59 0 -101 -42.5t-42 -102.5v-1147zM422 737q0 103 33 187q25 73 86 145q66 66 137 92q88 31 162 31q113 0 190 -45q78 -37 131 -105q47 -70 47 -122 q0 -31 -26 -68q-26 -29 -66 -29t-65 21q-14 14 -39 59q-25 55 -70 88q-42 25 -100 25q-89 0 -148 -74q-61 -67 -61 -209q0 -63 26 -160q18 -40 74 -84q54 -30 103 -30q59 0 112 33q51 40 70 96q12 36 31 59q23 33 63 33q44 0 70 -29q26 -26 26 -65q0 -48 -22 -97 q-9 -35 -66 -100q-29 -37 -112 -76q-66 -28 -162 -28q-64 0 -125 12q-72 21 -105 39q-39 26 -86 80q-44 64 -57 92q-23 39 -39 106q-12 61 -12 123zM1372 737q0 116 35 187q44 101 88 145q56 62 135 92q84 31 162 31q109 0 195 -45q77 -36 124 -105q48 -63 48 -122 q0 -38 -27 -68q-26 -29 -66 -29q-33 0 -61 21q-27 27 -37 59q-40 62 -72 88q-36 25 -104 25q-87 0 -152 -74q-55 -68 -55 -209q0 -78 29 -160q18 -43 69 -84q54 -30 107 -30q62 0 111 33q46 34 67 96q10 33 33 59q17 33 65 33q40 0 66 -29q29 -29 29 -65q0 -56 -21 -97 q-19 -44 -65 -100q-37 -42 -117 -76q-63 -28 -158 -28q-68 0 -129 12q-85 29 -102 39q-37 21 -84 80q-39 39 -60 92q-30 67 -36 106q-17 87 -17 123z" />
<glyph unicode="&#xf009;" horiz-adv-x="3465" d="M158 84l215 1290q8 40 31.5 62t58.5 22h2787q24 0 41 -21t17 -51l-213 -1277q-10 -40 -33.5 -66.5t-59.5 -26.5h-2783q-26 0 -43.5 19.5t-17.5 48.5zM424 244h248l65 374h592l-65 -374h247l164 954h-245l-62 -346h-592l66 346h-252zM1729 244h798q192 0 285 75t121 254 l57 295q28 177 -35 254q-70 76 -262 76h-797l-43 -219h736q90 0 125 -41q36 -58 14 -150l-21 -133q-22 -103 -65.5 -142.5t-138.5 -39.5h-494l57 336h-245z" />
<glyph unicode="&#xf00a;" horiz-adv-x="3223" d="M158 92q0 -32 25.5 -54t58.5 -22h2740q36 0 60 22t24 54v1288q0 32 -22 55t-58 23h-2744q-32 0 -58 -23.5t-26 -54.5v-1288zM285 1231h309l176 -602l191 602h278l191 -613l182 613h301l-334 -995h-293l-186 608l-187 -608h-299zM1911 567v25h295v-19q0 -51 18 -69 q21 -36 55 -49q21 -16 72 -27q42 -12 98 -12q35 0 76 6q10 3 32.5 7t33.5 7q40 20 51 35q18 22 18 45q0 26 -22 51q-47 26 -76 35q-63 20 -113 27q-13 3 -57 13t-70 17q-52 7 -135 31q-85 33 -114 49q-53 36 -91 86q-32 49 -32 123q0 80 45 139q37 57 106 97q62 32 150 55 q119 18 164 18q51 0 188 -18q86 -18 158 -55q62 -34 112 -107q43 -54 43 -143v-27h-290l-7 19q-6 44 -16 65q-17 23 -45 35q-11 6 -34 13t-30 10q-14 0 -42.5 3t-45.5 3q-39 0 -59 -6q-8 -2 -26.5 -7t-28.5 -6q-30 -30 -33 -35q-10 -8 -10 -36q0 -27 6 -31q9 -13 43 -31 q14 -2 50 -12t54 -14l185 -37q7 -2 23 -6.5t32.5 -8.5t32.5 -8q55 -6 127 -47q57 -25 108 -86q49 -55 49 -145q0 -55 -37 -127q-35 -60 -100 -105q-70 -48 -162 -65q-89 -27 -221 -27q-105 0 -194 21q-95 17 -172 61q-68 41 -121 115q-41 61 -41 155z" />
<glyph unicode="&#xf00b;" horiz-adv-x="3203" d="M158 162q0 -60 43 -103t104 -43h2597q59 0 101 43t42 103v1151q0 60 -42 102.5t-101 42.5h-2597q-61 0 -104 -42.5t-43 -102.5v-1151zM381 262v950h713v-176h-506v-202h463v-164h-463v-232h514v-176h-721zM1186 573h198q0 -88 59.5 -129t153.5 -41q32 0 60.5 4.5t59 16 t49 36.5t18.5 60q0 19 -7 35t-17.5 27.5t-30 22.5t-35.5 18t-45 15.5t-47.5 13t-52.5 12.5t-52 12q-50 15 -83.5 27t-74 35t-65 49t-41 67t-16.5 92q0 95 54 162.5t132.5 97t169.5 29.5q77 0 143 -17.5t120 -53.5t85 -97t31 -141h-201q-6 81 -54.5 113t-131.5 32 q-59 0 -103.5 -26.5t-44.5 -81.5q0 -49 41.5 -70t209.5 -67q22 -6 34 -9q285 -59 285 -272q0 -136 -105 -219.5t-295 -83.5q-63 0 -122 12t-111 38.5t-90 64.5t-59 93.5t-19 122.5zM2109 262v950h431q86 0 150.5 -25.5t101 -70t54 -97.5t17.5 -114q0 -60 -17.5 -112.5 t-54 -96.5t-101 -69t-150.5 -25h-222v-340h-209zM2318 766h162q41 0 70.5 5t56.5 19t41 42.5t14 72.5q0 84 -48 114t-134 30h-162v-283z" />
<glyph unicode="&#xf00c;" horiz-adv-x="3756" d="M158 211v1049q0 81 56.5 139.5t141.5 58.5h3044q82 0 140 -59t58 -139v-1049q0 -82 -57.5 -138.5t-140.5 -56.5h-3044q-86 0 -142 56t-56 139zM383 287h219v614l311 -614h295v901h-217v-615l-303 615h-305v-901zM1374 287h649v170h-409v205h371v169h-371v187h393v170 h-633v-901zM2095 1188l197 -901h315l119 690l129 -690h305l201 901h-236l-112 -692h-2l-129 692h-302l-124 -692h-2l-115 692h-244z" />
<glyph unicode="&#xf00d;" horiz-adv-x="1871" d="M158 16v1442h1556v-1442h-1556zM311 170h1250v1130h-1250v-1130zM420 733q0 135 67 250q62 109 172 176q121 64 236 64q19 0 40 -2.5t47 -7.5t40 -7q61 -16 113 -43l20 43h92l90 -315l-129 -41q-65 106 -100 141q-55 44 -86 56q-49 22 -90 22q-65 0 -121 -35 q-62 -41 -92 -112q-29 -65 -29 -170q0 -128 35 -199q34 -84 94 -123q59 -41 123 -41q46 0 94 23q44 13 64 41q18 45 18 67v33q0 32 -10 49q-12 18 -18 19q-8 8 -52 8h-51v129h465v-129h-39q-35 0 -43 -8q-4 -1 -10.5 -9t-9.5 -10q-2 -12 -2 -51v-301h-146l-37 72 q-60 -43 -129 -66q-104 -23 -141 -23q-126 0 -240 66q-107 69 -168 176q-67 122 -67 258z" />
<glyph unicode="&#xf00e;" horiz-adv-x="2863" d="M158 16v1442h2547v-1442h-2547zM309 168h2239v1130h-2239v-1130zM440 260v129h33q45 0 59 8q9 0 17 19q8 16 8 57v512q0 41 -8 57q0 11 -14 25q-6 2 -48 2h-47v131h502q100 0 156 -20q55 -12 108 -58q47 -31 70 -94q22 -40 22 -110q0 -121 -92 -201q-90 -84 -252 -84 h-163v-176q0 -37 4 -41q4 -19 20 -19q8 -8 41 -8h51v-129h-467zM791 782h83q73 0 103 15q26 6 59 43q23 46 23 78q0 63 -53 100q-36 29 -111 29h-104v-265zM1399 735q0 116 61 248q53 100 172 174q112 64 234 64q55 0 123 -21q62 -13 110 -41l23 41h96l86 -309l-125 -39 q-67 101 -102 139q-8 5 -25.5 18.5t-32 23t-28.5 14.5q-39 20 -90 20q-71 0 -121 -39q-49 -33 -86 -106q-33 -74 -33 -170q0 -110 35 -197q28 -71 92 -121q60 -37 129 -37q42 0 88 19q41 15 61 43q15 21 15 65v33q0 43 -4 51q-7 11 -19 17q-10 4 -51 4h-53v131h461v-131h-33 q-37 0 -47 -4q-10 -7 -17 -17q-8 -12 -8 -55v-293h-137l-39 68q-59 -47 -129 -60q-67 -22 -143 -22q-129 0 -232 61q-107 62 -170 174q-61 129 -61 254z" />
<glyph unicode="&#xf00f;" horiz-adv-x="4876" d="M158 16v1442h4561v-1442h-4561zM313 168h4250v1137h-4250v-1137zM428 256v131h33q40 0 55 10q13 0 21 19q8 16 8 57v518q0 40 -8 56q-2 5 -19 22l-16 2q-15 2 -31 2h-43v133h504q94 0 153 -20q46 -9 109 -60q41 -29 70 -92q26 -76 26 -114q0 -121 -94 -203 q-97 -82 -258 -82h-166v-178q0 -21 10 -41q2 -8 7.5 -13.5t11.5 -5.5q7 -10 41 -10h49v-131h-463zM772 780h86q72 0 109 15q39 24 51 47q24 39 24 78q0 66 -51 102q-43 31 -106 31h-113v-273zM1386 735q0 139 66 248q55 113 170 178q111 62 240 62q73 0 123 -17 q67 -16 104 -45l27 45h94l86 -311l-121 -45q-51 79 -104 145q-57 42 -86 58q-66 16 -93 16q-69 0 -118 -35q-65 -45 -93 -108q-34 -80 -34 -174q0 -108 39 -197q48 -90 96 -121q60 -37 123 -37q46 0 92 19q31 11 67 43q11 26 11 65v33q0 15 -2 30.5t-2 16.5q-2 7 -11 16 l-8 9q-8 2 -47 2h-59v133h462v-133h-32q-39 0 -45 -2q-16 -9 -21 -25q-6 -9 -6 -51v-297h-137l-37 72q-56 -43 -133 -66q-60 -18 -146 -18q-131 0 -235 63q-105 64 -164 174q-66 119 -66 254zM2544 616v162h368v-162h-368zM2955 256v133h94q54 0 62 8q14 0 22 19q9 18 9 61 v531h-187v133q99 8 121 16q57 11 139 35q33 8 76 31h70v-803q7 -14 22 -23q12 -8 56 -8h98v-133h-582zM3664 498q0 45 35 80q27 34 73 34q50 0 80 -30t37 -68q21 -62 35 -84q23 -23 51 -33q29 -14 78 -14q48 0 82 20q33 14 61 54q19 22 19 75q0 83 -62 123q-56 33 -157 33 h-47v129h47q72 0 118 8q33 18 56 45q22 31 22 64q0 41 -37 78q-44 41 -129 41q-57 0 -100 -19q-39 -24 -57 -49q-21 -42 -21 -84h-143v25q0 94 39 149q32 54 123 107q93 41 196 41t187 -37q86 -44 120 -96q39 -53 39 -113q0 -40 -20 -92q-27 -53 -72 -82q-44 -31 -86 -45 q55 -3 96 -23q43 -26 66 -47q34 -43 43 -70q14 -29 14 -79q0 -82 -45 -142q-46 -70 -137 -116q-73 -37 -211 -37q-136 0 -209 37q-100 53 -135 102q-49 55 -49 115z" />
<glyph unicode="&#xf010;" horiz-adv-x="1873" d="M158 16v1442h1558v-1442h-1558zM311 168h1245v1137h-1245v-1137zM412 256v133h41q43 0 51 8l22 19q2 8 2 57v535q0 33 -6 45q0 6 -14 20q-12 2 -41 2h-55v137h592q67 0 122 -8q70 -12 121 -43q58 -46 84 -92q31 -54 31 -117q0 -115 -74 -180q-87 -70 -186 -84l198 -231 l5 -11q5 -5 13.5 -14t13 -13.5t9.5 -6.5q19 -15 29 -15q16 -8 51 -8h37v-133h-305l-305 414h-82v-193q0 -18 2 -39t2 -22q4 -19 16 -19q12 -8 54 -8h41v-133h-469zM766 809h141q84 0 125 14q32 13 68 45q18 52 18 72q0 23 -18 64q-18 23 -60 40q-37 13 -118 13h-156v-248z " />
<glyph unicode="&#xf011;" horiz-adv-x="4892" d="M158 16v1442h4577v-1442h-4577zM309 166h4266v1139h-4266v-1139zM434 260v133h39q37 0 47 4q14 5 17 21q8 12 8 43v547q0 35 -8 45q-4 15 -17 20q-24 6 -37 6h-49v131h385l277 -553v342q0 44 -2 54q-18 18 -21 20q-18 6 -41 6h-51v131h391v-131h-43q-11 0 -47 -6 q-16 -16 -18 -20q-2 -10 -2 -54v-739h-199l-352 701v-490q0 -43 4 -55l18 -19q8 -4 47 -4h43v-133h-389zM1462 743q0 143 60 248q62 110 176 176q109 62 241 62q134 0 236 -60l25 41h92l94 -338l-125 -38q-49 95 -119 174q-76 67 -168 67q-72 0 -125 -35q-61 -41 -94 -106 q-31 -81 -31 -174q0 -137 76 -252q79 -105 203 -105q74 0 158 48q72 46 157 151l107 -74q-83 -115 -189 -200q-134 -82 -294 -82q-137 0 -242 63q-111 67 -174 180q-64 116 -64 254zM2554 618v162h377v-162h-377zM3033 260v133h94q56 0 62 4q16 8 20 21q15 18 15 65v529 h-191v135q71 8 121 18q18 2 39.5 7t54 14.5t47.5 13.5q16 4 40.5 15t35.5 14h70v-801q13 -25 20 -29q12 -6 60 -6h94v-133h-582zM3629 887l92 356h92l13 -33h630v-131q-82 -80 -143 -161q-67 -101 -104 -185q-49 -95 -72 -196q-5 -18 -9.5 -38.5t-8.5 -51t-6.5 -52t-7 -66.5 t-7.5 -69h-246q11 156 56 279q30 103 127 245q69 119 174 224h-310q-46 0 -73 -9t-31 -20q-9 -16 -27 -70l-16 -53z" />
<glyph unicode="&#xf012;" horiz-adv-x="2879" d="M158 16h2564v1442h-2564v-1442zM305 168v1137h2259v-1137h-2259zM426 266h393v131h-92l-18 19q0 4 -3.5 23t-3.5 34v488l351 -695h200v733q0 46 2 54q3 11 21 20q24 6 49 6h39v131h-389v-131h45q11 0 47 -6q16 -16 18 -20q5 -20 5 -54v-340l-281 551h-383v-131h51 q9 0 39 -6q13 -9 19 -20q2 -8 2 -45v-545q0 -33 -2 -43q-17 -17 -21 -23h-88v-131zM1411 256h471v133h-49q-15 0 -30.5 4t-16.5 4q-12 9 -17 19q-4 12 -4 65v189h78l307 -414h308v133h-41q-10 0 -25 4t-20 4q-14 0 -29 15q-27 18 -35 34l-12 11l-197 231q94 19 189 84 q73 76 73 180q0 75 -30 121q-30 58 -88 88q-46 35 -117 45q-16 1 -61.5 8t-67.5 7h-586v-142h53q19 0 37 -6q5 -2 19 -16q0 -3 3 -17.5t3 -27.5v-539q0 -17 -3 -34.5t-3 -18.5q-4 -8 -19 -23q-3 0 -18.5 -4t-28.5 -4h-43v-133zM1765 809v250h156q86 0 115 -15q38 -8 59 -40 q16 -21 16 -64q0 -47 -16 -68q-13 -17 -63 -49q-68 -14 -127 -14h-140z" />
<glyph unicode="&#xf013;" horiz-adv-x="2613" d="M158 16v1442h1085v-1442h-1085zM381 188h227q120 0 224 73.5t165.5 199.5t61.5 274q0 147 -61.5 272.5t-165.5 198t-224 72.5h-227v-1090zM1372 16v1442h1084v-1442h-1084zM1554 735q0 -148 61.5 -274t165.5 -199.5t224 -73.5h227v1090h-227q-120 0 -224 -72.5 t-165.5 -198t-61.5 -272.5z" />
<glyph unicode="&#xf014;" horiz-adv-x="4186" d="M158 16v1442h1075v-1442h-1075zM379 193h227q119 0 223 72.5t166 198t62 271.5q0 110 -36.5 210t-98 171t-144.5 113.5t-172 42.5h-227v-1079zM1366 16v1442h1075v-1442h-1075zM1542 735q0 -147 61.5 -272t166 -197.5t225.5 -72.5h225v1079h-225q-91 0 -174.5 -42 t-144.5 -114t-97.5 -171.5t-36.5 -209.5zM2722 18v1430h579q206 0 293 -23q134 -29 234 -137q102 -85 153 -229q47 -143 47 -338q0 -164 -47 -303q-48 -144 -170 -254q-63 -63 -217 -117q-110 -29 -282 -29h-590zM3033 254h236q54 6 123.5 12t72.5 6q84 13 123 58 q62 48 86 143q33 136 33 264q0 136 -33 254q-50 106 -94 139q-66 55 -146 68q-75 10 -256 10h-145v-954z" />
<glyph unicode="&#xf015;" horiz-adv-x="6391" d="M158 16h1075v1442h-1075v-1442zM379 193v1079h223q186 0 317.5 -157t131.5 -382q0 -146 -60 -270.5t-163.5 -197t-225.5 -72.5h-223zM1360 16h1075v1442h-1075v-1442zM1542 733q0 148 61 272t164.5 195.5t223.5 71.5h223v-1079h-223q-120 0 -223.5 72.5t-164.5 197 t-61 270.5zM2720 25h588q180 0 282 24q130 44 217 115q116 110 166 256q51 128 51 307q0 206 -51 334q-50 138 -149 229q-105 105 -234 133q-94 25 -293 25h-577v-1423zM3029 258v952h145q162 0 260 -12q88 -16 144 -72q45 -32 90 -135q33 -105 33 -256q0 -132 -33 -260 q-21 -89 -84 -141q-50 -47 -123 -53q-58 -14 -199 -23h-233zM4239 397q19 -92 56 -155q42 -83 100 -121q123 -111 319 -111q256 0 394 189q108 129 108 311q0 209 -131 340q-125 131 -311 131q-51 0 -94 -14q-48 -8 -92 -31l38 242h521v245h-727l-146 -727l234 -37 q87 109 206 109q46 0 91 -20q34 -19 65 -50q57 -46 57 -190q0 -79 -10 -123q-11 -48 -47 -90q-60 -66 -151 -66q-79 0 -131 52q-60 57 -68 149zM5308 39h281v272h-281v-272zM5603 850q188 54 355 209v-1020h276v1419h-221q-24 -74 -70 -129q-39 -53 -102 -106 q-122 -90 -238 -131v-242z" />
<glyph unicode="&#xf016;" horiz-adv-x="6408" d="M158 18h1073v1440h-1073v-1440zM383 199v1079h221q119 0 223 -72.5t166 -198t62 -270.5t-62 -269.5t-166 -196.5t-223 -72h-221zM1366 18h1073v1440h-1073v-1440zM1542 737q0 146 62 271t166.5 197.5t224.5 72.5h225v-1079h-225q-120 0 -224.5 72t-166.5 196t-62 270z M2720 23h588q159 0 282 26q151 55 223 119q117 113 166 252q47 143 47 311q0 191 -47 334q-57 142 -155 227q-96 102 -234 135q-92 25 -293 25h-577v-1429zM3035 264v948h139q172 0 258 -12q87 -17 146 -70q55 -40 92 -139q33 -87 33 -252q0 -143 -33 -262q-19 -81 -82 -141 q-52 -46 -125 -55q-56 -11 -196 -17h-232zM4297 1165h614q-189 -245 -301 -544q-117 -308 -123 -603h262q0 200 62 428q69 257 176 453q133 220 237 324v192h-927v-250zM5245 18h270v275h-270v-275zM5630 836q199 69 350 208v-1026h270v1426h-221q-47 -134 -172 -230 q-107 -89 -227 -129v-249z" />
<glyph unicode="&#xf017;" horiz-adv-x="1859" d="M158 606l63 -114l264 -472h226l16 29q47 79 112 178.5t183 267.5t271 348t306 322l103 92l-176 205l-96 -88q-426 -397 -826 -1028l-225 402z" />
<glyph unicode="&#xf018;" horiz-adv-x="2992" d="M163 816q22 182 136 329q107 141 263 212t326 59.5t318 -103.5q8 -4 56 -39q17 -13 33 -27t32.5 -32t28 -31t28.5 -35.5t24 -32.5t25.5 -35.5t22.5 -31.5q10 -16 27 -62h1196l157 -211l-157 -158h-252l-70 -169h-110l-47 169h-123l-58 -169h-118l-66 169h-131l-57 -169 h-177l-12 -33l-6 -13l-6 -8q-7 -9 -22 -33.5t-25 -35.5q-2 -3 -6 -15q-113 -146 -282.5 -216t-350.5 -49t-326 132q-150 115 -221.5 285.5t-49.5 352.5zM402.5 697q11.5 -84 80.5 -136q69 -54 154.5 -42t138.5 81q53 70 41 155t-80 138q-71 52 -157.5 40t-135.5 -83 q-53 -69 -41.5 -153z" />
<glyph unicode="&#xf019;" horiz-adv-x="1869" d="M161 1072.5q8 76.5 37.5 147.5t75.5 123.5t112 83.5t142 31q167 0 286.5 -141.5t119.5 -339.5q0 198 120 339.5t287 141.5q76 0 142.5 -32t113.5 -85.5t77.5 -125t38.5 -148t-7.5 -158t-56.5 -151.5q-83 -142 -187 -268.5t-192 -206t-165 -139t-121 -90.5t-44 -38h-14 q0 5 -25.5 24.5t-70.5 52t-102.5 76t-125 105t-133 131.5t-132.5 162.5t-118 190.5q-38 73 -52 155.5t-6 159z" />
<glyph unicode="&#xf01a;" horiz-adv-x="1826" d="M158 905l465 -338l-181 -551l469 338l471 -338l-180 551l467 338h-575l-183 553l-178 -553h-575z" />
<glyph unicode="&#xf01b;" d="M208.5 -171q-1.5 45 20.5 83l1006 1835q20 40 59 64t84 24q46 0 86 -24t62 -64l1001 -1835q22 -38 20.5 -83t-24.5 -83q-22 -38 -60.5 -60t-82.5 -22h-2003q-45 0 -83.5 22t-60.5 60q-23 38 -24.5 83zM1190 1124l24 -596q0 -10 13 -19t28 -9h244q17 0 29 8.5t14 19.5 l25 598q0 17 -13 27q-23 14 -32 14h-285q-14 0 -33 -14q-14 -8 -14 -29zM1212 41q0 -17 12 -30t29 -13h250q18 0 29.5 12.5t11.5 30.5v248q0 18 -11.5 30.5t-29.5 12.5h-250q-17 0 -29 -13t-12 -30v-248z" />
<glyph unicode="&#xf01c;" horiz-adv-x="2197" d="M158 1018l233 -6q3 70 39 125q56 69 120 93t146 5q182 -44 191 -223l4 -221h-184v-775h1333v770h-914v222q0 194 -149 319q-137 131 -342 131q-190 0 -330 -131q-144 -123 -147 -309zM1143 119l213 266q-58 9 -96.5 52.5t-38.5 101.5q0 67 43 111t108 44q64 0 111 -44.5 t47 -110.5q0 -58 -39 -101.5t-98 -52.5l213 -266h-463z" />
<glyph unicode="&#xf01d;" horiz-adv-x="1654" d="M158 16v772h180v220q0 196 147 317q149 133 342 133q192 0 347 -133q148 -124 145 -317v-215h178v-777h-1339zM569 793h512v219q-12 178 -188 219q-171 40 -283 -105q-31 -41 -41 -114v-219zM598 104h465l-215 269q58 8 99.5 52t41.5 103q0 63 -48.5 109.5t-111.5 46.5 q-65 0 -111 -46t-46 -110q0 -59 39.5 -103t97.5 -52z" />
<glyph unicode="&#xf01e;" horiz-adv-x="1757" d="M158 281h585q-51 -48 -45 -111q-6 -64 52 -102q58 -52 127 -52q68 0 120 52q33 20 45 51q15 30 15 51q0 61 -60 111h602q0 141 -276 426l-49 403q-7 84 -78.5 130t-210.5 60v158h-221v-158q-140 -14 -210 -60t-71 -130l-47 -403q-278 -281 -278 -426z" />
<glyph unicode="&#xf01f;" horiz-adv-x="1056" d="M158 795l20 -60q99 49 180 70q30 12 60 12q25 -6 22 -35q-8 -52 -92 -243l-84 -189q-50 -110 -63 -205q-9 -58 14 -88q17 -33 66 -39q28 -2 65 5q57 10 162 51l268 119l-28 59q-198 -83 -218 -72q-32 0 -26 39q3 38 22.5 92.5t77.5 177.5l55 111q107 233 119 307 q6 41 -14 64q-18 27 -51 30q-44 8 -158 -24q-115 -38 -397 -182zM625 1317q0 -57 40 -97t97 -40t97 40t40 97t-40 99t-97 42t-97 -42t-40 -99z" />
<glyph unicode="&#xf020;" horiz-adv-x="2304" d="M123 293h739v-143h-297v-150h1174v150h-297v143h739v1182h-2058v-1182zM317 489v787h1663v-787h-1663z" />
<glyph unicode="&#xf021;" horiz-adv-x="1642" d="M158 16v1442l1327 -721z" />
<glyph unicode="&#xf022;" horiz-adv-x="3201" d="M158 739q0 -196 99.5 -362.5t270.5 -263.5t373 -97q201 0 370.5 97t268 263.5t98.5 362.5t-98.5 361.5t-268 261.5t-370.5 96q-202 0 -373 -96t-270.5 -261.5t-99.5 -361.5zM653 348v778l697 -387l-349 -198zM1751 27h389v784l504 -784h399v1423h-399v-788l-506 788h-387 v-1423z" />
<glyph unicode="&#xf023;" horiz-adv-x="1757" d="M158 735h430v723h577v-723h434l-720 -719z" />
<glyph unicode="&#xf024;" horiz-adv-x="1503" d="M158 16l608 242l580 -242v1442h-1188v-1442z" />
<glyph unicode="&#xf025;" d="M158 883l1224 946l445 -344v358h477v-725l295 -235l-117 -156l-1100 850l-1108 -850zM446 -334v780h187v-600h1507v600h187v-780h-1881zM1982 1360l158 -123v451h-158v-328z" />
<glyph unicode="&#xf026;" d="M508 -14q0 -31 24 -49q18 -21 52 -21q23 0 47 16l145 150q136 -123 279 -174q153 -66 315 -66q304 0 545 191q223 181 301 487q4 4 4 8q0 17 -12 29q-16 8 -25 8h-217q-31 0 -37 -24q-47 -114 -57 -135q-83 -129 -211 -197q-128 -76 -287 -76q-112 0 -207 39 q-119 49 -182 115l152 155q26 20 26 56q0 27 -20 47q-30 20 -56 20h-507q-31 0 -48 -20q-24 -18 -24 -51v-508zM528 893q0 -18 11 -25q12 -12 24 -12h225q23 0 39 25q43 112 58 135q78 125 209 201q130 71 280 71q235 0 395 -153l-151 -156q-27 -21 -27 -51q0 -33 27 -51 q21 -21 49 -21h508q27 0 51 21q23 23 23 51v508q0 22 -23 53q-28 16 -51 16q-27 0 -51 -16l-146 -150q-136 123 -278 179q-162 61 -326 61q-296 0 -536 -186q-234 -194 -310 -492v-8z" />
<glyph unicode="&#xf027;" horiz-adv-x="2398" d="M158 764q0 211 82.5 403.5t222 332t332 222t403.5 82.5q212 0 405 -82.5t332.5 -222t222.5 -332t83 -403.5t-83 -403.5t-222.5 -332t-332.5 -222t-405 -82.5q-211 0 -403.5 82.5t-332 222t-222 332t-82.5 403.5zM223 764q0 -198 77.5 -378.5t208 -311t311 -208 t378.5 -77.5t379 77.5t312 208t208.5 311t77.5 378.5q0 199 -77.5 379.5t-208.5 311t-311.5 207.5t-379.5 77q-198 0 -378.5 -77t-311 -207.5t-208 -311.5t-77.5 -379z" />
<glyph unicode="&#xf028;" horiz-adv-x="2676" d="M158 -45q0 35 25 59.5t59 24.5h2187q34 0 59 -24.5t25 -59.5v-168q0 -34 -25 -59t-59 -25h-2187q-34 0 -59 25t-25 59v168zM158 293v168q0 35 25 59.5t59 24.5h2187q34 0 59 -24.5t25 -59.5v-168q0 -35 -25 -59.5t-59 -24.5h-2187q-34 0 -59 24.5t-25 59.5zM158 797v168 q0 35 25 59.5t59 24.5h2187q34 0 59 -24.5t25 -59.5v-168q0 -35 -25 -59.5t-59 -24.5h-2187q-34 0 -59 24.5t-25 59.5zM158 1303v167q0 34 25 59t59 25h2187q34 0 59 -25t25 -59v-167q0 -35 -25 -59.5t-59 -24.5h-2187q-34 0 -59 24.5t-25 59.5z" />
<glyph unicode="&#xf029;" horiz-adv-x="2676" d="M158 86q0 52 37 89.5t90 37.5h420q52 0 89 -37t37 -90v-252q0 -53 -37 -90t-89 -37h-420q-53 0 -90 37.5t-37 89.5v252zM158 506v254q0 52 37 88.5t90 36.5h420q53 0 89.5 -36.5t36.5 -88.5v-254q0 -52 -36.5 -88.5t-89.5 -36.5h-420q-53 0 -90 36.5t-37 88.5zM158 1180 v252q0 52 37 89.5t90 37.5h420q52 0 89 -37t37 -90v-252q0 -53 -37 -90t-89 -37h-420q-53 0 -90 37.5t-37 89.5zM999 86q0 53 36.5 90t88.5 37h422q52 0 88.5 -37t36.5 -90v-252q0 -53 -36.5 -90t-88.5 -37h-422q-52 0 -88.5 37t-36.5 90v252zM999 506v254q0 52 36.5 88.5 t88.5 36.5h422q52 0 88.5 -36.5t36.5 -88.5v-254q0 -52 -36.5 -88.5t-88.5 -36.5h-422q-52 0 -88.5 36.5t-36.5 88.5zM999 1180v252q0 53 36.5 90t88.5 37h422q52 0 88.5 -37t36.5 -90v-252q0 -53 -36.5 -90t-88.5 -37h-422q-52 0 -88.5 37t-36.5 90zM1839 86 q0 52 37.5 89.5t89.5 37.5h420q52 0 89.5 -37.5t37.5 -89.5v-252q0 -52 -37.5 -89.5t-89.5 -37.5h-420q-52 0 -89.5 37.5t-37.5 89.5v252zM1839 506v254q0 52 37 88.5t90 36.5h420q53 0 90 -36.5t37 -88.5v-254q0 -52 -37 -88.5t-90 -36.5h-420q-53 0 -90 36.5t-37 88.5z M1839 1180v252q0 52 37.5 89.5t89.5 37.5h420q52 0 89.5 -37.5t37.5 -89.5v-252q0 -52 -37.5 -89.5t-89.5 -37.5h-420q-52 0 -89.5 37.5t-37.5 89.5z" />
<glyph unicode="&#xf030;" horiz-adv-x="2676" d="M184 971q0 134 35 262.5t98.5 238t155 202t201 157.5t240 101t268.5 36q202 0 386.5 -79t317.5 -212.5t212 -318t79 -387.5q0 -309 -176 -563l485 -486q54 -54 54 -129q0 -73 -53.5 -126.5t-127.5 -53.5q-76 0 -129 53l-485 486q-255 -177 -563 -177q-203 0 -388 79 t-318.5 212.5t-212.5 318t-79 386.5zM547 971q0 -128 50.5 -245t135.5 -202t202.5 -135.5t246.5 -50.5q128 0 245.5 50.5t202 135t135 202t50.5 245.5q0 129 -50.5 246.5t-135.5 202.5t-202 135.5t-245 50.5q-129 0 -246.5 -50.5t-202.5 -135.5t-135.5 -202.5t-50.5 -246.5z " />
<glyph unicode="&#xf031;" horiz-adv-x="2676" d="M909 -143q0 26 21 47l805 805l-805 804q-21 21 -21 48q0 26 21 47l102 102q21 21 47 21t47 -21l955 -954q20 -20 20 -47t-20 -47l-955 -955q-20 -20 -47 -20t-47 20l-102 103q-21 21 -21 47z" />
<glyph unicode="&#xf032;" horiz-adv-x="2359" d="M158 860q0 27 20 47l103 103q20 20 47 20t47 -20l805 -805l805 805q20 20 47 20t47 -20l102 -103q21 -21 21 -47t-21 -47l-954 -954q-21 -21 -47 -21t-47 21l-955 954q-20 20 -20 47z" />
<glyph unicode="&#xf033;" d="M208.5 -171q-1.5 45 20.5 83l1006 1835q20 40 59 64t84 24q46 0 86 -24t62 -64l1001 -1835q22 -38 20.5 -83t-24.5 -83q-22 -38 -60.5 -60t-82.5 -22h-2003q-45 0 -83.5 22t-60.5 60q-23 38 -24.5 83z" />
<glyph unicode="&#xf034;" d="M154 -10v1417q0 135 98.5 232.5t234.5 97.5h471q136 0 234 -97.5t98 -232.5v-49h991q136 0 233 -97.5t97 -232.5v-1038q0 -137 -97 -234.5t-233 -97.5h-1794q-137 0 -235 98t-98 234z" />
<glyph unicode="&#xf035;" d="M2 -53v1460q0 134 98 231t234 97h471q135 0 233.5 -97.5t98.5 -230.5v-49h798q137 0 234.5 -98t97.5 -234v-238h-1227q-139 0 -290 -70t-242 -175l-498 -588zM109 -264q0 51 47 94l497 588q63 76 175.5 129t211.5 53h1604q30 0 55.5 -5.5t47.5 -25t22 -51.5 q0 -46 -43 -100l-496 -588q-65 -74 -178 -126t-211 -52h-1603q-48 0 -88.5 19.5t-40.5 64.5z" />
<glyph unicode="&#xf036;" horiz-adv-x="2676" d="M160 657q0 141 44.5 278.5t122 252.5t185.5 213.5t231.5 167t263.5 107t279 38.5q213 0 409 -84.5t337.5 -226.5t226 -337.5t84.5 -408.5q0 -171 -53.5 -330.5t-152 -287t-228.5 -223t-291 -147.5t-332 -52q-167 0 -333 52t-307.5 148t-251 222.5t-172 287t-62.5 330.5z M639 178l186 -188l461 479l475 -479l207 188l-579 479l579 476l-207 206l-475 -581l-461 581l-186 -206l475 -476z" />
<glyph unicode="&#xf037;" horiz-adv-x="3203" d="M147 203v1061q0 56 43.5 95.5t104.5 39.5h2611q62 0 105 -39t43 -96v-1061q0 -56 -43.5 -95.5t-104.5 -39.5h-2611q-60 0 -104 40t-44 95zM291 586q0 -92 33 -154q34 -63 90 -104q59 -44 133 -62q70 -20 153 -20q95 0 172 22q79 26 125 66q52 40 76 96q27 56 27 123 q0 81 -35 131q-37 57 -82 84q-48 31 -94 45q-66 17 -74 18l-147 39q-49 11 -86 29q-32 16 -43 33q-11 22 -11 45q0 28 13 51q16 22 34 35q19 11 48 18q32 4 51 4q36 0 71 -6q32 -5 58 -22q23 -13 41 -45q15 -27 18 -72h205q0 83 -31 143q-33 56 -86 97q-57 38 -123 53 q-63 16 -145 16q-72 0 -129 -16q-60 -17 -115 -53q-52 -37 -82 -93q-32 -49 -32 -126q0 -67 24 -113q24 -47 66 -78t92 -51q52 -19 104 -33q19 -4 54 -14t49 -13q60 -14 92 -28q41 -15 65 -39q25 -25 25 -64q0 -38 -18 -59q-18 -23 -48 -37q-27 -15 -61 -18q-20 -4 -59 -4 q-46 0 -82 8q-38 12 -68 33q-31 21 -45 53q-18 35 -18 82h-205zM1124 268h211l76 213h358l74 -213h219l-358 959h-217zM1466 639l127 352l121 -352h-248zM2144 268h211v344h223q87 0 154 25q62 27 102 70t58 98q18 58 18 115q0 58 -18 114t-58 99t-102 67q-64 27 -154 27 h-434v-959zM2355 776v287h166q24 0 70 -4q26 -4 59 -23q28 -17 39 -43q16 -24 16 -73q0 -50 -16 -74q-11 -24 -39 -45q-28 -16 -59 -21q-46 -4 -70 -4h-166z" />
<glyph unicode="&#xf038;" horiz-adv-x="2398" d="M158 764q0 211 82.5 403.5t222 332t332 222t403.5 82.5q212 0 405 -82.5t332.5 -222t222.5 -332t83 -403.5t-83 -403.5t-222.5 -332t-332.5 -222t-405 -82.5q-211 0 -403.5 82.5t-332 222t-222 332t-82.5 403.5z" />
<glyph unicode="&#xf039;" horiz-adv-x="2398" d="M166 -188v1894q0 35 25.5 60.5t62.5 25.5h686q37 0 63.5 -25.5t26.5 -60.5v-1894q0 -37 -26.5 -62.5t-63.5 -25.5h-686q-37 0 -62.5 25.5t-25.5 62.5zM1370 -188v1894q0 35 26.5 60.5t63.5 25.5h688q35 0 60.5 -25.5t25.5 -60.5v-1894q0 -37 -25.5 -62.5t-60.5 -25.5 h-688q-37 0 -63.5 25.5t-26.5 62.5z" />
</font>
</defs>
</svg>
